<svg width="700" height="320" viewBox="0 0 700 320" fill="none" xmlns="http://www.w3.org/2000/svg">
<g clip-path="url(#clip0_804_26)">
<mask id="mask0_804_26" style="mask-type:luminance" maskUnits="userSpaceOnUse" x="0" y="0" width="700" height="320">
<path d="M684 0H16C7.16344 0 0 7.16344 0 16V304C0 312.837 7.16344 320 16 320H684C692.837 320 700 312.837 700 304V16C700 7.16344 692.837 0 684 0Z" fill="white"/>
</mask>
<g mask="url(#mask0_804_26)">
<path d="M684 0H16C7.16344 0 0 7.16344 0 16V304C0 312.837 7.16344 320 16 320H684C692.837 320 700 312.837 700 304V16C700 7.16344 692.837 0 684 0Z" fill="url(#paint0_linear_804_26)"/>
<path d="M311.72 247.034C283.108 246.887 258.409 231.208 246.538 201.531C234.656 171.825 238.271 134.702 253.583 101.377C282.195 101.524 306.894 117.203 318.765 146.88C330.647 176.586 327.031 213.709 311.72 247.034Z" stroke="url(#paint1_linear_804_26)" stroke-opacity="0.05" stroke-width="0.530516"/>
<path d="M305.969 246.867C343.89 237.091 376.971 210.369 393.341 171.537C409.71 132.704 405.724 90.4078 386.217 56.5005C348.295 66.2766 315.215 92.9979 298.845 131.831C282.476 170.663 286.462 212.959 305.969 246.867Z" stroke="url(#paint2_linear_804_26)" stroke-opacity="0.05" stroke-width="0.530516"/>
<path d="M393.586 261.878C362.034 272.529 329.98 265.88 306.002 246.907C317.534 215.919 341.57 190.327 373.13 179.673C404.681 169.023 436.735 175.671 460.714 194.644C449.181 225.632 425.145 251.224 393.586 261.878Z" stroke="url(#paint3_linear_804_26)" stroke-opacity="0.05" stroke-width="0.530516"/>
<g opacity="0.8" filter="url(#filter0_f_804_26)">
<path d="M660 100C748.366 100 820 28.3656 820 -60C820 -148.366 748.366 -220 660 -220C571.634 -220 500 -148.366 500 -60C500 28.3656 571.634 100 660 100Z" fill="#18BEE2" fill-opacity="0.4"/>
</g>
<g opacity="0.8" filter="url(#filter1_f_804_26)">
<path d="M20 373C108.366 373 180 301.366 180 213C180 124.634 108.366 53 20 53C-68.3656 53 -140 124.634 -140 213C-140 301.366 -68.3656 373 20 373Z" fill="#18CAE2" fill-opacity="0.33"/>
</g>
<g opacity="0.8" filter="url(#filter2_f_804_26)">
</g>
<g opacity="0.8" filter="url(#filter3_f_804_26)">
<path d="M20 573C108.366 573 180 501.366 180 413C180 324.634 108.366 253 20 253C-68.3656 253 -140 324.634 -140 413C-140 501.366 -68.3656 573 20 573Z" fill="#4018E2" fill-opacity="0.22"/>
</g>
<path opacity="0.2" d="M0 50H700" stroke="url(#paint4_radial_804_26)" stroke-dasharray="4 4"/>
<path opacity="0.1" d="M0 82H700" stroke="url(#paint5_radial_804_26)" stroke-dasharray="4 4"/>
<path opacity="0.2" d="M239 0V320" stroke="url(#paint6_radial_804_26)" stroke-dasharray="4 4"/>
<path opacity="0.1" d="M271 0V320" stroke="url(#paint7_radial_804_26)" stroke-dasharray="4 4"/>
<path opacity="0.2" d="M461 0V320" stroke="url(#paint8_radial_804_26)" stroke-dasharray="4 4"/>
<path opacity="0.1" d="M429 0V320" stroke="url(#paint9_radial_804_26)" stroke-dasharray="4 4"/>
<path opacity="0.2" d="M0 271H700" stroke="url(#paint10_radial_804_26)" stroke-dasharray="4 4"/>
<path opacity="0.1" d="M0 239H700" stroke="url(#paint11_radial_804_26)" stroke-dasharray="4 4"/>
<g style="mix-blend-mode:overlay" opacity="0.1">
<path d="M0 160H700" stroke="url(#paint12_linear_804_26)"/>
</g>
<g style="mix-blend-mode:overlay" opacity="0.2">
<path d="M511 321L189 -1" stroke="url(#paint13_linear_804_26)"/>
</g>
<g style="mix-blend-mode:overlay" opacity="0.1">
<path d="M350 271C411.304 271 461 221.304 461 160C461 98.6964 411.304 49 350 49C288.696 49 239 98.6964 239 160C239 221.304 288.696 271 350 271Z" stroke="white"/>
</g>
</g>
<path d="M375.296 127.061L342.15 160.207L375.296 193.353L408.442 160.207L375.296 127.061Z" fill="url(#paint14_radial_804_26)"/>
<path d="M325.15 76.9998L292.004 110.146L325.15 143.291L358.295 110.146L325.15 76.9998Z" fill="url(#paint15_linear_804_26)"/>
<path d="M325.146 177.293L292 210.438L325.146 243.584L358.291 210.438L325.146 177.293Z" fill="url(#paint16_linear_804_26)"/>
</g>
<defs>
<filter id="filter0_f_804_26" x="260" y="-460" width="800" height="800" filterUnits="userSpaceOnUse" color-interpolation-filters="sRGB">
<feFlood flood-opacity="0" result="BackgroundImageFix"/>
<feBlend mode="normal" in="SourceGraphic" in2="BackgroundImageFix" result="shape"/>
<feGaussianBlur stdDeviation="120" result="effect1_foregroundBlur_804_26"/>
</filter>
<filter id="filter1_f_804_26" x="-380" y="-187" width="800" height="800" filterUnits="userSpaceOnUse" color-interpolation-filters="sRGB">
<feFlood flood-opacity="0" result="BackgroundImageFix"/>
<feBlend mode="normal" in="SourceGraphic" in2="BackgroundImageFix" result="shape"/>
<feGaussianBlur stdDeviation="120" result="effect1_foregroundBlur_804_26"/>
</filter>
<filter id="filter2_f_804_26" x="260" y="80" width="800" height="800" filterUnits="userSpaceOnUse" color-interpolation-filters="sRGB">
<feFlood flood-opacity="0" result="BackgroundImageFix"/>
<feBlend mode="normal" in="SourceGraphic" in2="BackgroundImageFix" result="shape"/>
<feGaussianBlur stdDeviation="120" result="effect1_foregroundBlur_804_26"/>
</filter>
<filter id="filter3_f_804_26" x="-380" y="13" width="800" height="800" filterUnits="userSpaceOnUse" color-interpolation-filters="sRGB">
<feFlood flood-opacity="0" result="BackgroundImageFix"/>
<feBlend mode="normal" in="SourceGraphic" in2="BackgroundImageFix" result="shape"/>
<feGaussianBlur stdDeviation="120" result="effect1_foregroundBlur_804_26"/>
</filter>
<linearGradient id="paint0_linear_804_26" x1="1.27814e-05" y1="320" x2="710.784" y2="26.0793" gradientUnits="userSpaceOnUse">
<stop stop-color="#19678A" stop-opacity="0.09"/>
<stop offset="0.729167" stop-color="#19678A" stop-opacity="0.08"/>
</linearGradient>
<linearGradient id="paint1_linear_804_26" x1="311.84" y1="123.717" x2="253.579" y2="224.761" gradientUnits="userSpaceOnUse">
<stop/>
<stop offset="1" stop-opacity="0"/>
</linearGradient>
<linearGradient id="paint2_linear_804_26" x1="308.586" y1="102.284" x2="383.487" y2="201.169" gradientUnits="userSpaceOnUse">
<stop/>
<stop offset="1" stop-opacity="0"/>
</linearGradient>
<linearGradient id="paint3_linear_804_26" x1="395.842" y1="169.781" x2="370.99" y2="271.799" gradientUnits="userSpaceOnUse">
<stop/>
<stop offset="1" stop-opacity="0"/>
</linearGradient>
<radialGradient id="paint4_radial_804_26" cx="0" cy="0" r="1" gradientUnits="userSpaceOnUse" gradientTransform="translate(nan nan) rotate(nan) scale(nan nan)">
<stop offset="0.348958" stop-color="#0EA5E9"/>
<stop offset="0.880208" stop-color="#19678A" stop-opacity="0"/>
</radialGradient>
<radialGradient id="paint5_radial_804_26" cx="0" cy="0" r="1" gradientUnits="userSpaceOnUse" gradientTransform="translate(nan nan) rotate(nan) scale(nan nan)">
<stop offset="0.348958" stop-color="#0EA5E9"/>
<stop offset="0.880208" stop-color="#19678A" stop-opacity="0"/>
</radialGradient>
<radialGradient id="paint6_radial_804_26" cx="0" cy="0" r="1" gradientUnits="userSpaceOnUse" gradientTransform="translate(nan nan) rotate(nan) scale(nan nan)">
<stop offset="0.348958" stop-color="#0EA5E9"/>
<stop offset="0.880208" stop-color="#19678A" stop-opacity="0"/>
</radialGradient>
<radialGradient id="paint7_radial_804_26" cx="0" cy="0" r="1" gradientUnits="userSpaceOnUse" gradientTransform="translate(nan nan) rotate(nan) scale(nan nan)">
<stop offset="0.348958" stop-color="#0EA5E9"/>
<stop offset="0.880208" stop-color="#19678A" stop-opacity="0"/>
</radialGradient>
<radialGradient id="paint8_radial_804_26" cx="0" cy="0" r="1" gradientUnits="userSpaceOnUse" gradientTransform="translate(nan nan) rotate(nan) scale(nan nan)">
<stop offset="0.348958" stop-color="#0EA5E9"/>
<stop offset="0.880208" stop-color="#19678A" stop-opacity="0"/>
</radialGradient>
<radialGradient id="paint9_radial_804_26" cx="0" cy="0" r="1" gradientUnits="userSpaceOnUse" gradientTransform="translate(nan nan) rotate(nan) scale(nan nan)">
<stop offset="0.348958" stop-color="#0EA5E9"/>
<stop offset="0.880208" stop-color="#19678A" stop-opacity="0"/>
</radialGradient>
<radialGradient id="paint10_radial_804_26" cx="0" cy="0" r="1" gradientUnits="userSpaceOnUse" gradientTransform="translate(nan nan) rotate(nan) scale(nan nan)">
<stop offset="0.348958" stop-color="#0EA5E9"/>
<stop offset="0.880208" stop-color="#19678A" stop-opacity="0"/>
</radialGradient>
<radialGradient id="paint11_radial_804_26" cx="0" cy="0" r="1" gradientUnits="userSpaceOnUse" gradientTransform="translate(nan nan) rotate(nan) scale(nan nan)">
<stop offset="0.348958" stop-color="#0EA5E9"/>
<stop offset="0.880208" stop-color="#19678A" stop-opacity="0"/>
</radialGradient>
<linearGradient id="paint12_linear_804_26" x1="nan" y1="nan" x2="nan" y2="nan" gradientUnits="userSpaceOnUse">
<stop stop-color="white" stop-opacity="0.1"/>
<stop offset="0.5" stop-color="white"/>
<stop offset="1" stop-color="white" stop-opacity="0.1"/>
</linearGradient>
<linearGradient id="paint13_linear_804_26" x1="511" y1="321" x2="189" y2="-1" gradientUnits="userSpaceOnUse">
<stop stop-color="white" stop-opacity="0.1"/>
<stop offset="0.5" stop-color="white"/>
<stop offset="1" stop-color="white" stop-opacity="0.1"/>
</linearGradient>
<radialGradient id="paint14_radial_804_26" cx="0" cy="0" r="1" gradientUnits="userSpaceOnUse" gradientTransform="translate(375.296 160.207) rotate(-114.016) scale(36.3542 35.8034)">
<stop stop-color="#0EA5E9"/>
<stop offset="1" stop-color="#19678A"/>
</radialGradient>
<linearGradient id="paint15_linear_804_26" x1="308.577" y1="93.5727" x2="341.722" y2="126.718" gradientUnits="userSpaceOnUse">
<stop stop-color="#0EA5E9"/>
<stop offset="1" stop-color="#19678A"/>
</linearGradient>
<linearGradient id="paint16_linear_804_26" x1="308.573" y1="227.011" x2="341.719" y2="193.866" gradientUnits="userSpaceOnUse">
<stop stop-color="#0EA5E9"/>
<stop offset="1" stop-color="#19678A"/>
</linearGradient>
<clipPath id="clip0_804_26">
<rect width="700" height="320" fill="white"/>
</clipPath>
</defs>
</svg>
